<svg width="30" height="30" viewBox="0 0 30 30" fill="none" xmlns="http://www.w3.org/2000/svg">
<rect width="30" height="30" rx="12" fill="#4FD1C5"/>
<path d="M7.5 8V11.1034H10.2274L10.5684 10.069H11.9321L12.273 10.5862H12.9549L13.2958 12.6552H13.6367V23H15.6823V12.6552H16.0232L16.3642 10.5862H16.7051C17.0454 10.5864 17.3779 10.6639 17.6597 10.8086L17.7197 10.8293L21.4304 12.5833C21.7672 12.7426 22.2124 12.6453 22.4122 12.3867C22.6107 12.1281 22.4511 11.8462 22.149 11.6512L18.4268 9.24655L18.4063 9.23052C17.7906 8.76397 17.0869 8.51724 16.3689 8.51724H12.273L11.9321 9.03448H10.6379L10.2274 8H7.5Z" fill="white"/>
</svg>
