<svg width="41" height="41" viewBox="0 0 41 41" fill="none" xmlns="http://www.w3.org/2000/svg">
<g filter="url(#filter0_d_133_1489)">
<rect x="5.5" y="2" width="30" height="30" rx="12" fill="white"/>
</g>
<path d="M13 10V13.1034H15.7274L16.0684 12.069H17.4321L17.773 12.5862H18.4549L18.7958 14.6552H19.1367V25H21.1823V14.6552H21.5232L21.8642 12.5862H22.2051C22.5454 12.5864 22.8779 12.6639 23.1597 12.8086L23.2197 12.8293L26.9304 14.5833C27.2672 14.7426 27.7124 14.6453 27.9122 14.3867C28.1107 14.1281 27.9511 13.8462 27.649 13.6512L23.9268 11.2466L23.9063 11.2305C23.2906 10.764 22.5869 10.5172 21.8689 10.5172H17.773L17.4321 11.0345H16.1379L15.7274 10H13Z" fill="#4FD1C5"/>
<defs>
<filter id="filter0_d_133_1489" x="-4.76837e-07" y="-2.38419e-07" width="41" height="41" filterUnits="userSpaceOnUse" color-interpolation-filters="sRGB">
<feFlood flood-opacity="0" result="BackgroundImageFix"/>
<feColorMatrix in="SourceAlpha" type="matrix" values="0 0 0 0 0 0 0 0 0 0 0 0 0 0 0 0 0 0 127 0" result="hardAlpha"/>
<feOffset dy="3.5"/>
<feGaussianBlur stdDeviation="2.75"/>
<feColorMatrix type="matrix" values="0 0 0 0 0 0 0 0 0 0 0 0 0 0 0 0 0 0 0.02 0"/>
<feBlend mode="normal" in2="BackgroundImageFix" result="effect1_dropShadow_133_1489"/>
<feBlend mode="normal" in="SourceGraphic" in2="effect1_dropShadow_133_1489" result="shape"/>
</filter>
</defs>
</svg>
