<svg width="31" height="30" viewBox="0 0 31 30" fill="none" xmlns="http://www.w3.org/2000/svg">
<rect x="0.5" width="30" height="30" rx="12" fill="#4FD1C5"/>
<path d="M18.3846 7C17.2308 7 16.0769 7.57692 15.5 8.15385C14.9231 7.57692 13.7692 7 12.6154 7H8V20.8462H12.6154C13.7692 20.8462 14.9231 21.4231 15.5 22C16.0769 21.4231 17.2308 20.8462 18.3846 20.8462H23V7H18.3846ZM15.5 21.2454C14.7973 20.729 13.7237 20.2692 12.6154 20.2692H8.57692V7.57692H12.6154C13.595 7.57692 14.6026 8.0725 15.0921 8.56173L15.5 8.9699V21.2454ZM21.2692 16.8077H17.2308V16.2308H21.2692V16.8077ZM21.2692 15.0769H17.2308V14.5H21.2692V15.0769ZM21.2692 13.3462H17.2308V12.7692H21.2692V13.3462ZM21.2692 11.6154H17.2308V11.0385H21.2692V11.6154Z" fill="white"/>
</svg>
