<svg width="41" height="41" viewBox="0 0 41 41" fill="none" xmlns="http://www.w3.org/2000/svg">
<g filter="url(#filter0_d_133_1490)">
<rect x="5.5" y="2" width="30" height="30" rx="12" fill="white"/>
</g>
<path d="M23.3846 10C22.2308 10 21.0769 10.5769 20.5 11.1538C19.9231 10.5769 18.7692 10 17.6154 10H13V23.8462H17.6154C18.7692 23.8462 19.9231 24.4231 20.5 25C21.0769 24.4231 22.2308 23.8462 23.3846 23.8462H28V10H23.3846ZM20.5 24.2454C19.7973 23.729 18.7237 23.2692 17.6154 23.2692H13.5769V10.5769H17.6154C18.595 10.5769 19.6026 11.0725 20.0921 11.5617L20.5 11.9699V24.2454ZM26.2692 19.8077H22.2308V19.2308H26.2692V19.8077ZM26.2692 18.0769H22.2308V17.5H26.2692V18.0769ZM26.2692 16.3462H22.2308V15.7692H26.2692V16.3462ZM26.2692 14.6154H22.2308V14.0385H26.2692V14.6154Z" fill="#4FD1C5"/>
<defs>
<filter id="filter0_d_133_1490" x="-4.76837e-07" y="-2.38419e-07" width="41" height="41" filterUnits="userSpaceOnUse" color-interpolation-filters="sRGB">
<feFlood flood-opacity="0" result="BackgroundImageFix"/>
<feColorMatrix in="SourceAlpha" type="matrix" values="0 0 0 0 0 0 0 0 0 0 0 0 0 0 0 0 0 0 127 0" result="hardAlpha"/>
<feOffset dy="3.5"/>
<feGaussianBlur stdDeviation="2.75"/>
<feColorMatrix type="matrix" values="0 0 0 0 0 0 0 0 0 0 0 0 0 0 0 0 0 0 0.02 0"/>
<feBlend mode="normal" in2="BackgroundImageFix" result="effect1_dropShadow_133_1490"/>
<feBlend mode="normal" in="SourceGraphic" in2="effect1_dropShadow_133_1490" result="shape"/>
</filter>
</defs>
</svg>
