<svg width="22" height="22" viewBox="0 0 22 22" fill="none" xmlns="http://www.w3.org/2000/svg">
<path fill-rule="evenodd" clip-rule="evenodd" d="M10.9895 14.4329C9.08955 14.4329 7.54879 12.8926 7.54879 10.9933C7.54879 9.09388 9.08955 7.55361 10.9895 7.55361C12.8895 7.55361 14.4302 9.09388 14.4302 10.9933C14.4302 12.8926 12.8895 14.4329 10.9895 14.4329ZM18.1868 10.0446L16.7665 9.53931C16.5883 9.47603 16.3918 9.2779 16.3295 9.09904L16.1052 8.55557C16.0233 8.38497 16.0226 8.10567 16.1038 7.93472L16.7489 6.57812C16.8301 6.40717 16.7933 6.15229 16.6671 6.01127L15.9731 5.31749C15.832 5.19125 15.577 5.15445 15.406 5.23562L14.049 5.88056C13.878 5.96174 13.5986 5.96105 13.428 5.87918L12.8843 5.65492C12.7054 5.593 12.5072 5.39626 12.4439 5.21808L11.9385 3.7982C11.8752 3.62002 11.6687 3.46077 11.4805 3.44426C11.4805 3.44426 11.2713 3.42603 10.9895 3.42603C10.7077 3.42603 10.4985 3.44426 10.4985 3.44426C10.31 3.46077 10.1039 3.62002 10.0406 3.7982L9.53512 5.21808C9.47181 5.39626 9.27363 5.593 9.09471 5.65526L8.55211 5.87918C8.38145 5.96105 8.10206 5.96174 7.93106 5.88056L6.573 5.23562C6.402 5.15445 6.14704 5.19125 6.00597 5.31749L5.31198 6.01127C5.1857 6.15229 5.14889 6.40717 5.23009 6.57812L5.87522 7.93472C5.95642 8.10567 5.95608 8.38497 5.87385 8.55557L5.64951 9.09904C5.58758 9.2779 5.39077 9.47603 5.21254 9.53931L3.79221 10.0446C3.61398 10.1079 3.45467 10.3139 3.43816 10.5024C3.43816 10.5024 3.41992 10.7115 3.41992 10.9933C3.41992 11.275 3.43816 11.4837 3.43816 11.4837C3.45467 11.6722 3.61398 11.8783 3.79221 11.9419L5.21323 12.4472C5.39146 12.5105 5.58827 12.7086 5.65054 12.8875L5.87488 13.4309C5.95677 13.6015 5.95746 13.8808 5.87626 14.0518L5.23112 15.4084C5.14992 15.5793 5.18673 15.8342 5.31301 15.9752L6.007 16.669C6.14807 16.7953 6.40303 16.8321 6.57403 16.7509L7.93106 16.1059C8.10206 16.0248 8.38145 16.0255 8.55211 16.1073L9.09574 16.3316C9.27432 16.3935 9.4725 16.5903 9.53616 16.7684L10.0416 18.189C10.1049 18.3672 10.311 18.5264 10.4996 18.5426C10.4996 18.5426 10.7077 18.5605 10.9895 18.5605C11.2713 18.5605 11.4805 18.5423 11.4805 18.5423C11.6687 18.5257 11.8752 18.3665 11.9385 18.1883L12.4439 16.7677C12.5072 16.5896 12.7054 16.3928 12.8843 16.3306L13.428 16.1063C13.5986 16.0244 13.878 16.0237 14.049 16.1049L15.406 16.7499C15.577 16.831 15.832 16.7942 15.9731 16.668L16.6671 15.9742C16.7933 15.8332 16.8301 15.5783 16.7489 15.4074L16.1038 14.0508C16.0226 13.8798 16.0233 13.6005 16.1052 13.4302L16.3295 12.8864C16.3915 12.7079 16.5883 12.5098 16.7665 12.4462L18.1875 11.9409C18.3657 11.8776 18.5251 11.6716 18.5412 11.4831C18.5412 11.4831 18.5591 11.275 18.5591 10.9933C18.5591 10.7115 18.5409 10.5024 18.5409 10.5024C18.5244 10.3139 18.3651 10.1079 18.1868 10.0446Z" fill="white"/>
<path fill-rule="evenodd" clip-rule="evenodd" d="M10.9897 9.44531C10.5791 9.44531 10.1853 9.60839 9.8949 9.89867C9.60453 10.1889 9.44141 10.5826 9.44141 10.9932C9.44141 11.4037 9.60453 11.7974 9.8949 12.0876C10.1853 12.3779 10.5791 12.541 10.9897 12.541C11.4004 12.541 11.7942 12.3779 12.0846 12.0876C12.3749 11.7974 12.5381 11.4037 12.5381 10.9932C12.5381 10.5826 12.3749 10.1889 12.0846 9.89867C11.7942 9.60839 11.4004 9.44531 10.9897 9.44531Z" fill="white"/>
<mask id="mask0_56_3437" style="mask-type:luminance" maskUnits="userSpaceOnUse" x="0" y="0" width="22" height="22">
<path d="M0 22H22V0H0V22Z" fill="white"/>
</mask>
<g mask="url(#mask0_56_3437)">
<path fill-rule="evenodd" clip-rule="evenodd" d="M10.9896 12.5412C10.5789 12.5412 10.1851 12.3781 9.89472 12.0879C9.60435 11.7976 9.44123 11.4039 9.44123 10.9934C9.44123 10.5828 9.60435 10.1891 9.89472 9.89887C10.1851 9.60859 10.5789 9.44552 10.9896 9.44552C11.4002 9.44552 11.794 9.60859 12.0844 9.89887C12.3748 10.1891 12.5379 10.5828 12.5379 10.9934C12.5379 11.4039 12.3748 11.7976 12.0844 12.0879C11.794 12.3781 11.4002 12.5412 10.9896 12.5412ZM10.9896 7.55371C9.08959 7.55371 7.54883 9.09399 7.54883 10.9934C7.54883 12.8927 9.08959 14.433 10.9896 14.433C12.8895 14.433 14.4303 12.8927 14.4303 10.9934C14.4303 9.09399 12.8895 7.55371 10.9896 7.55371Z" fill="black"/>
</g>
<mask id="mask1_56_3437" style="mask-type:luminance" maskUnits="userSpaceOnUse" x="0" y="0" width="22" height="22">
<path d="M0 22H22V0H0V22Z" fill="white"/>
</mask>
<g mask="url(#mask1_56_3437)">
<path fill-rule="evenodd" clip-rule="evenodd" d="M18.5415 11.483C18.5253 11.6715 18.366 11.8775 18.1878 11.9408L16.7668 12.4461C16.5886 12.5097 16.3918 12.7079 16.3298 12.8864L16.1055 13.4302C16.0236 13.6005 16.0229 13.8798 16.1041 14.0507L16.7492 15.4073C16.8304 15.5783 16.7936 15.8331 16.6674 15.9742L15.9734 16.6679C15.8323 16.7942 15.5773 16.831 15.4063 16.7498L14.0493 16.1049C13.8783 16.0237 13.5989 16.0244 13.4283 16.1062L12.8846 16.3305C12.7057 16.3928 12.5075 16.5895 12.4442 16.7677L11.9388 18.1883C11.8755 18.3664 11.669 18.5257 11.4808 18.5422C11.4808 18.5422 11.2716 18.5604 10.9898 18.5604C10.708 18.5604 10.4999 18.5426 10.4999 18.5426C10.3113 18.5264 10.1052 18.3671 10.0419 18.189L9.53645 16.7684C9.4728 16.5902 9.27461 16.3935 9.09604 16.3315L8.5524 16.1073C8.38174 16.0254 8.10236 16.0247 7.93135 16.1059L6.57433 16.7508C6.40333 16.832 6.14837 16.7952 6.0073 16.669L5.3133 15.9752C5.18703 15.8342 5.15021 15.5793 5.23142 15.4083L5.87655 14.0517C5.95775 13.8808 5.95706 13.6015 5.87518 13.4309L5.65084 12.8874C5.58856 12.7086 5.39175 12.5104 5.21352 12.4471L3.7925 11.9419C3.61427 11.8782 3.45497 11.6722 3.43845 11.4837C3.43845 11.4837 3.42022 11.2749 3.42022 10.9932C3.42022 10.7115 3.43845 10.5024 3.43845 10.5024C3.45497 10.3139 3.61427 10.1078 3.7925 10.0446L5.21284 9.53927C5.39107 9.47598 5.58787 9.27785 5.64981 9.09899L5.87414 8.55553C5.95638 8.38492 5.95672 8.10562 5.87552 7.93467L5.23038 6.57807C5.14918 6.40712 5.186 6.15225 5.31227 6.01122L6.00627 5.31744C6.14734 5.19121 6.40229 5.1544 6.5733 5.23558L7.93135 5.88051C8.10236 5.96169 8.38174 5.961 8.5524 5.87914L9.09501 5.65522C9.27392 5.59296 9.47211 5.39621 9.53542 5.21804L10.0409 3.79815C10.1042 3.61997 10.3103 3.46072 10.4988 3.44421C10.4988 3.44421 10.708 3.42598 10.9898 3.42598C11.2716 3.42598 11.4808 3.44421 11.4808 3.44421C11.669 3.46072 11.8755 3.61997 11.9388 3.79815L12.4442 5.21804C12.5075 5.39621 12.7057 5.59296 12.8846 5.65487L13.4283 5.87914C13.5989 5.961 13.8783 5.96169 14.0493 5.88051L15.4063 5.23558C15.5773 5.1544 15.8323 5.19121 15.9734 5.31744L16.6674 6.01122C16.7936 6.15225 16.8304 6.40712 16.7492 6.57807L16.1041 7.93467C16.0229 8.10562 16.0236 8.38492 16.1055 8.55553L16.3298 9.09899C16.3921 9.27785 16.5886 9.47598 16.7668 9.53927L18.1871 10.0446C18.3654 10.1078 18.5247 10.3139 18.5412 10.5024C18.5412 10.5024 18.5594 10.7115 18.5594 10.9932C18.5594 11.2749 18.5415 11.483 18.5415 11.483ZM10.9898 -0.0136719C4.90902 -0.0136719 -0.0205078 4.91431 -0.0205078 10.9932C-0.0205078 17.0721 4.90902 22.0001 10.9898 22.0001C17.0706 22.0001 22.0001 17.0721 22.0001 10.9932C22.0001 4.91431 17.0706 -0.0136719 10.9898 -0.0136719Z" fill="black"/>
</g>
</svg>
