<svg width="512" height="512" viewBox="0 0 512 512" fill="none" xmlns="http://www.w3.org/2000/svg">
<path fill-rule="evenodd" clip-rule="evenodd" d="M256 336C211.824 336 176 300.176 176 256C176 211.824 211.824 176 256 176C300.176 176 336 211.824 336 256C336 300.176 300.176 336 256 336ZM423.344 233.936L390.32 222.184C386.176 220.712 381.608 216.104 380.16 211.944L374.944 199.304C373.04 195.336 373.024 188.84 374.912 184.864L389.912 153.312C391.8 149.336 390.944 143.408 388.008 140.128L371.872 123.992C368.592 121.056 362.664 120.2 358.688 122.088L327.136 137.088C323.16 138.976 316.664 138.96 312.696 137.056L300.056 131.84C295.896 130.4 291.288 125.824 289.816 121.68L278.064 88.656C276.592 84.512 271.792 80.808 267.416 80.424C267.416 80.424 262.552 80 256 80C249.448 80 244.584 80.424 244.584 80.424C240.2 80.808 235.408 84.512 233.936 88.656L222.184 121.68C220.712 125.824 216.104 130.4 211.944 131.848L199.328 137.056C195.36 138.96 188.864 138.976 184.888 137.088L153.312 122.088C149.336 120.2 143.408 121.056 140.128 123.992L123.992 140.128C121.056 143.408 120.2 149.336 122.088 153.312L137.088 184.864C138.976 188.84 138.968 195.336 137.056 199.304L131.84 211.944C130.4 216.104 125.824 220.712 121.68 222.184L88.656 233.936C84.512 235.408 80.808 240.2 80.424 244.584C80.424 244.584 80 249.448 80 256C80 262.552 80.424 267.408 80.424 267.408C80.808 271.792 84.512 276.584 88.656 278.064L121.696 289.816C125.84 291.288 130.416 295.896 131.864 300.056L137.08 312.696C138.984 316.664 139 323.16 137.112 327.136L122.112 358.688C120.224 362.664 121.08 368.592 124.016 371.872L140.152 388.008C143.432 390.944 149.36 391.8 153.336 389.912L184.888 374.912C188.864 373.024 195.36 373.04 199.328 374.944L211.968 380.16C216.12 381.6 220.728 386.176 222.208 390.32L233.96 423.36C235.432 427.504 240.224 431.208 244.608 431.584C244.608 431.584 249.448 432 256 432C262.552 432 267.416 431.576 267.416 431.576C271.792 431.192 276.592 427.488 278.064 423.344L289.816 390.304C291.288 386.16 295.896 381.584 300.056 380.136L312.696 374.92C316.664 373.016 323.16 373 327.136 374.888L358.688 389.888C362.664 391.776 368.592 390.92 371.872 387.984L388.008 371.848C390.944 368.568 391.8 362.64 389.912 358.664L374.912 327.112C373.024 323.136 373.04 316.64 374.944 312.68L380.16 300.032C381.6 295.88 386.176 291.272 390.32 289.792L423.36 278.04C427.504 276.568 431.208 271.776 431.584 267.392C431.584 267.392 432 262.552 432 256C432 249.448 431.576 244.584 431.576 244.584C431.192 240.2 427.488 235.408 423.344 233.936Z" fill="#4FD1C5"/>
<path fill-rule="evenodd" clip-rule="evenodd" d="M256 220C246.452 220 237.295 223.793 230.544 230.544C223.793 237.295 220 246.452 220 256C220 265.548 223.793 274.705 230.544 281.456C237.295 288.207 246.452 292 256 292C265.548 292 274.705 288.207 281.456 281.456C288.207 274.705 292 265.548 292 256C292 246.452 288.207 237.295 281.456 230.544C274.705 223.793 265.548 220 256 220Z" fill="#4FD1C5"/>
<mask id="mask0_32_15877" style="mask-type:luminance" maskUnits="userSpaceOnUse" x="0" y="0" width="512" height="512">
<path d="M0.480011 512H512V0.320312H0.480011V512Z" fill="white"/>
</mask>
<g mask="url(#mask0_32_15877)">
<path fill-rule="evenodd" clip-rule="evenodd" d="M256 292C246.452 292 237.295 288.207 230.544 281.456C223.793 274.705 220 265.548 220 256C220 246.452 223.793 237.295 230.544 230.544C237.295 223.793 246.452 220 256 220C265.548 220 274.705 223.793 281.456 230.544C288.207 237.295 292 246.452 292 256C292 265.548 288.207 274.705 281.456 281.456C274.705 288.207 265.548 292 256 292ZM256 176C211.824 176 176 211.824 176 256C176 300.176 211.824 336 256 336C300.176 336 336 300.176 336 256C336 211.824 300.176 176 256 176Z" fill="white"/>
</g>
<mask id="mask1_32_15877" style="mask-type:luminance" maskUnits="userSpaceOnUse" x="0" y="0" width="512" height="512">
<path d="M0.480011 512H512V0.320312H0.480011V512Z" fill="white"/>
</mask>
<g mask="url(#mask1_32_15877)">
<path fill-rule="evenodd" clip-rule="evenodd" d="M431.584 267.392C431.208 271.776 427.504 276.568 423.36 278.04L390.32 289.792C386.176 291.272 381.6 295.88 380.16 300.032L374.944 312.68C373.04 316.64 373.024 323.136 374.912 327.112L389.912 358.664C391.8 362.64 390.944 368.568 388.008 371.848L371.872 387.984C368.592 390.92 362.664 391.776 358.688 389.888L327.136 374.888C323.16 373 316.664 373.016 312.696 374.92L300.056 380.136C295.896 381.584 291.288 386.16 289.816 390.304L278.064 423.344C276.592 427.488 271.792 431.192 267.416 431.576C267.416 431.576 262.552 432 256 432C249.448 432 244.608 431.584 244.608 431.584C240.224 431.208 235.432 427.504 233.96 423.36L222.208 390.32C220.728 386.176 216.12 381.6 211.968 380.16L199.328 374.944C195.36 373.04 188.864 373.024 184.888 374.912L153.336 389.912C149.36 391.8 143.432 390.944 140.152 388.008L124.016 371.872C121.08 368.592 120.224 362.664 122.112 358.688L137.112 327.136C139 323.16 138.984 316.664 137.08 312.696L131.864 300.056C130.416 295.896 125.84 291.288 121.696 289.816L88.656 278.064C84.512 276.584 80.808 271.792 80.424 267.408C80.424 267.408 80 262.552 80 256C80 249.448 80.424 244.584 80.424 244.584C80.808 240.2 84.512 235.408 88.656 233.936L121.68 222.184C125.824 220.712 130.4 216.104 131.84 211.944L137.056 199.304C138.968 195.336 138.976 188.84 137.088 184.864L122.088 153.312C120.2 149.336 121.056 143.408 123.992 140.128L140.128 123.992C143.408 121.056 149.336 120.2 153.312 122.088L184.888 137.088C188.864 138.976 195.36 138.96 199.328 137.056L211.944 131.848C216.104 130.4 220.712 125.824 222.184 121.68L233.936 88.656C235.408 84.512 240.2 80.808 244.584 80.424C244.584 80.424 249.448 80 256 80C262.552 80 267.416 80.424 267.416 80.424C271.792 80.808 276.592 84.512 278.064 88.656L289.816 121.68C291.288 125.824 295.896 130.4 300.056 131.84L312.696 137.056C316.664 138.96 323.16 138.976 327.136 137.088L358.688 122.088C362.664 120.2 368.592 121.056 371.872 123.992L388.008 140.128C390.944 143.408 391.8 149.336 389.912 153.312L374.912 184.864C373.024 188.84 373.04 195.336 374.944 199.304L380.16 211.944C381.608 216.104 386.176 220.712 390.32 222.184L423.344 233.936C427.488 235.408 431.192 240.2 431.576 244.584C431.576 244.584 432 249.448 432 256C432 262.552 431.584 267.392 431.584 267.392ZM256 0C114.616 0 0 114.616 0 256C0 397.384 114.616 512 256 512C397.384 512 512 397.384 512 256C512 114.616 397.384 0 256 0Z" fill="white"/>
</g>
</svg>
