<svg width="31" height="30" viewBox="0 0 31 30" fill="none" xmlns="http://www.w3.org/2000/svg">
<rect x="0.5" width="30" height="30" rx="12" fill="#4FD1C5"/>
<path opacity="0.9" d="M16.5679 7C13.0143 7 10.1429 10.3583 10.1429 14.5H8L10.7821 17.7458L10.8321 17.8667L13.7143 14.5H11.5714C11.5714 11.2792 13.8107 8.66667 16.5714 8.66667C19.3321 8.66667 21.5714 11.2792 21.5714 14.5C21.5714 17.7208 19.3321 20.3333 16.5714 20.3333C15.1893 20.3333 13.9429 19.675 13.0393 18.6208L12.0286 19.8C13.1893 21.1583 14.7929 22 16.5679 22C20.1214 22 23 18.6417 23 14.5C23 10.3583 20.1214 7 16.5679 7ZM15.8571 11.1667V15.3333L18.9143 17.45L19.4286 16.4375L16.9286 14.7083V11.1667H15.8571Z" fill="white"/>
</svg>
