<svg width="41" height="41" viewBox="0 0 41 41" fill="none" xmlns="http://www.w3.org/2000/svg">
<g filter="url(#filter0_d_133_1493)">
<rect x="5.5" y="2" width="30" height="30" rx="12" fill="white"/>
</g>
<path opacity="0.9" d="M21.5679 10C18.0143 10 15.1429 13.3583 15.1429 17.5H13L15.7821 20.7458L15.8321 20.8667L18.7143 17.5H16.5714C16.5714 14.2792 18.8107 11.6667 21.5714 11.6667C24.3321 11.6667 26.5714 14.2792 26.5714 17.5C26.5714 20.7208 24.3321 23.3333 21.5714 23.3333C20.1893 23.3333 18.9429 22.675 18.0393 21.6208L17.0286 22.8C18.1893 24.1583 19.7929 25 21.5679 25C25.1214 25 28 21.6417 28 17.5C28 13.3583 25.1214 10 21.5679 10ZM20.8571 14.1667V18.3333L23.9143 20.45L24.4286 19.4375L21.9286 17.7083V14.1667H20.8571Z" fill="#4FD1C5"/>
<defs>
<filter id="filter0_d_133_1493" x="-4.76837e-07" y="-2.38419e-07" width="41" height="41" filterUnits="userSpaceOnUse" color-interpolation-filters="sRGB">
<feFlood flood-opacity="0" result="BackgroundImageFix"/>
<feColorMatrix in="SourceAlpha" type="matrix" values="0 0 0 0 0 0 0 0 0 0 0 0 0 0 0 0 0 0 127 0" result="hardAlpha"/>
<feOffset dy="3.5"/>
<feGaussianBlur stdDeviation="2.75"/>
<feColorMatrix type="matrix" values="0 0 0 0 0 0 0 0 0 0 0 0 0 0 0 0 0 0 0.02 0"/>
<feBlend mode="normal" in2="BackgroundImageFix" result="effect1_dropShadow_133_1493"/>
<feBlend mode="normal" in="SourceGraphic" in2="effect1_dropShadow_133_1493" result="shape"/>
</filter>
</defs>
</svg>
