<svg width="41" height="41" viewBox="0 0 41 41" fill="none" xmlns="http://www.w3.org/2000/svg">
<g filter="url(#filter0_d_132_1487)">
<rect x="5.5" y="2" width="30" height="30" rx="12" fill="white"/>
</g>
<path d="M20.6629 12.4674C20.6193 12.4256 20.5612 12.4023 20.5009 12.4023C20.4405 12.4023 20.3825 12.4256 20.3389 12.4674L14.9453 17.6198C14.9224 17.6417 14.9042 17.668 14.8917 17.6972C14.8793 17.7263 14.8729 17.7577 14.8729 17.7894L14.8721 22.6252C14.8721 22.8738 14.9708 23.1123 15.1467 23.2881C15.3225 23.4639 15.5609 23.5627 15.8096 23.5627H18.625C18.7493 23.5627 18.8685 23.5133 18.9565 23.4254C19.0444 23.3375 19.0937 23.2182 19.0937 23.0939V19.1095C19.0937 19.0474 19.1184 18.9878 19.1624 18.9438C19.2063 18.8999 19.266 18.8752 19.3281 18.8752H21.6719C21.734 18.8752 21.7936 18.8999 21.8376 18.9438C21.8816 18.9878 21.9062 19.0474 21.9062 19.1095V23.0939C21.9062 23.2182 21.9556 23.3375 22.0435 23.4254C22.1314 23.5133 22.2507 23.5627 22.375 23.5627H25.1893C25.4379 23.5627 25.6764 23.4639 25.8522 23.2881C26.028 23.1123 26.1268 22.8738 26.1268 22.6252V17.7894C26.1268 17.7577 26.1204 17.7263 26.108 17.6972C26.0955 17.668 26.0773 17.6417 26.0544 17.6198L20.6629 12.4674Z" fill="#4FD1C5"/>
<path d="M27.3826 16.6538L25.1912 14.5573V11.376C25.1912 11.2517 25.1418 11.1324 25.0539 11.0445C24.966 10.9566 24.8468 10.9072 24.7225 10.9072H23.3162C23.1919 10.9072 23.0727 10.9566 22.9848 11.0445C22.8969 11.1324 22.8475 11.2517 22.8475 11.376V12.3135L21.1506 10.691C20.9918 10.5305 20.7557 10.4385 20.5005 10.4385C20.2462 10.4385 20.0107 10.5305 19.8519 10.6913L13.6204 16.6532C13.4382 16.829 13.4153 17.1182 13.5812 17.3086C13.6228 17.3567 13.6738 17.3958 13.731 17.4235C13.7882 17.4512 13.8505 17.467 13.914 17.4699C13.9776 17.4728 14.041 17.4628 14.1006 17.4404C14.1601 17.418 14.2144 17.3837 14.2603 17.3396L20.3394 11.5307C20.383 11.4889 20.441 11.4657 20.5014 11.4657C20.5617 11.4657 20.6198 11.4889 20.6634 11.5307L26.7431 17.3396C26.8326 17.4255 26.9526 17.4724 27.0766 17.47C27.2007 17.4676 27.3187 17.4161 27.4049 17.3268C27.5848 17.1404 27.5698 16.8328 27.3826 16.6538Z" fill="#4FD1C5"/>
<defs>
<filter id="filter0_d_132_1487" x="-4.76837e-07" y="-2.38419e-07" width="41" height="41" filterUnits="userSpaceOnUse" color-interpolation-filters="sRGB">
<feFlood flood-opacity="0" result="BackgroundImageFix"/>
<feColorMatrix in="SourceAlpha" type="matrix" values="0 0 0 0 0 0 0 0 0 0 0 0 0 0 0 0 0 0 127 0" result="hardAlpha"/>
<feOffset dy="3.5"/>
<feGaussianBlur stdDeviation="2.75"/>
<feColorMatrix type="matrix" values="0 0 0 0 0 0 0 0 0 0 0 0 0 0 0 0 0 0 0.02 0"/>
<feBlend mode="normal" in2="BackgroundImageFix" result="effect1_dropShadow_132_1487"/>
<feBlend mode="normal" in="SourceGraphic" in2="effect1_dropShadow_132_1487" result="shape"/>
</filter>
</defs>
</svg>
