<svg width="41" height="41" viewBox="0 0 41 41" fill="none" xmlns="http://www.w3.org/2000/svg">
<g filter="url(#filter0_d_133_1494)">
<rect x="5.5" y="2" width="30" height="30" rx="12" fill="white"/>
</g>
<path d="M16.6466 10.875C16.8806 10.875 17.105 10.7762 17.2704 10.6004C17.4359 10.4246 17.5288 10.1861 17.5288 9.9375C17.5288 9.68886 17.4359 9.4504 17.2704 9.27459C17.105 9.09877 16.8806 9 16.6466 9H14.8822C14.6482 9 14.4238 9.09877 14.2584 9.27459C14.0929 9.4504 14 9.68886 14 9.9375V23.0625C14 23.3111 14.0929 23.5496 14.2584 23.7254C14.4238 23.9012 14.6482 24 14.8822 24H16.6466C16.8806 24 17.105 23.9012 17.2704 23.7254C17.4359 23.5496 17.5288 23.3111 17.5288 23.0625C17.5288 22.8139 17.4359 22.5754 17.2704 22.3996C17.105 22.2238 16.8806 22.125 16.6466 22.125H15.7644V10.875H16.6466ZM28.8388 15.9563L26.3509 12.2063C26.216 12.0041 26.0113 11.867 25.7815 11.8248C25.5517 11.7827 25.3155 11.8389 25.1247 11.9812C25.0292 12.0523 24.948 12.1427 24.8857 12.2473C24.8233 12.3519 24.7811 12.4686 24.7614 12.5906C24.7417 12.7126 24.745 12.8376 24.771 12.9583C24.797 13.079 24.8452 13.193 24.9129 13.2937L26.4303 15.5625H19.2933C19.0593 15.5625 18.8349 15.6613 18.6694 15.8371C18.504 16.0129 18.411 16.2514 18.411 16.5C18.411 16.7486 18.504 16.9871 18.6694 17.1629C18.8349 17.3387 19.0593 17.4375 19.2933 17.4375H26.3509L24.763 19.6875C24.6934 19.786 24.6429 19.8981 24.6141 20.0173C24.5854 20.1366 24.579 20.2607 24.5954 20.3826C24.6118 20.5045 24.6506 20.6217 24.7096 20.7276C24.7686 20.8336 24.8467 20.9261 24.9394 21C25.0921 21.1217 25.2778 21.1875 25.4687 21.1875C25.6057 21.1875 25.7408 21.1536 25.8633 21.0885C25.9858 21.0234 26.0923 20.9289 26.1745 20.8125L28.8211 17.0625C28.9341 16.9039 28.9967 16.7113 28.9999 16.5124C29.003 16.3136 28.9466 16.1188 28.8388 15.9563Z" fill="#4FD1C5"/>
<defs>
<filter id="filter0_d_133_1494" x="-4.76837e-07" y="-2.38419e-07" width="41" height="41" filterUnits="userSpaceOnUse" color-interpolation-filters="sRGB">
<feFlood flood-opacity="0" result="BackgroundImageFix"/>
<feColorMatrix in="SourceAlpha" type="matrix" values="0 0 0 0 0 0 0 0 0 0 0 0 0 0 0 0 0 0 127 0" result="hardAlpha"/>
<feOffset dy="3.5"/>
<feGaussianBlur stdDeviation="2.75"/>
<feColorMatrix type="matrix" values="0 0 0 0 0 0 0 0 0 0 0 0 0 0 0 0 0 0 0.02 0"/>
<feBlend mode="normal" in2="BackgroundImageFix" result="effect1_dropShadow_133_1494"/>
<feBlend mode="normal" in="SourceGraphic" in2="effect1_dropShadow_133_1494" result="shape"/>
</filter>
</defs>
</svg>
