<svg width="41" height="41" viewBox="0 0 41 41" fill="none" xmlns="http://www.w3.org/2000/svg">
<g filter="url(#filter0_d_144_1489)">
<rect x="5.49976" y="2" width="30" height="30" rx="12" fill="#4FD1C5"/>
</g>
<path d="M16.6464 10.875C16.8804 10.875 17.1048 10.7762 17.2702 10.6004C17.4356 10.4246 17.5286 10.1861 17.5286 9.9375C17.5286 9.68886 17.4356 9.4504 17.2702 9.27459C17.1048 9.09877 16.8804 9 16.6464 9H14.882C14.648 9 14.4236 9.09877 14.2581 9.27459C14.0927 9.4504 13.9998 9.68886 13.9998 9.9375V23.0625C13.9998 23.3111 14.0927 23.5496 14.2581 23.7254C14.4236 23.9012 14.648 24 14.882 24H16.6464C16.8804 24 17.1048 23.9012 17.2702 23.7254C17.4356 23.5496 17.5286 23.3111 17.5286 23.0625C17.5286 22.8139 17.4356 22.5754 17.2702 22.3996C17.1048 22.2238 16.8804 22.125 16.6464 22.125H15.7642V10.875H16.6464ZM28.8385 15.9563L26.3507 12.2063C26.2158 12.0041 26.011 11.867 25.7812 11.8248C25.5514 11.7827 25.3153 11.8389 25.1244 11.9812C25.029 12.0523 24.9478 12.1427 24.8854 12.2473C24.8231 12.3519 24.7808 12.4686 24.7612 12.5906C24.7415 12.7126 24.7447 12.8376 24.7707 12.9583C24.7967 13.079 24.845 13.193 24.9127 13.2937L26.4301 15.5625H19.293C19.059 15.5625 18.8346 15.6613 18.6692 15.8371C18.5037 16.0129 18.4108 16.2514 18.4108 16.5C18.4108 16.7486 18.5037 16.9871 18.6692 17.1629C18.8346 17.3387 19.059 17.4375 19.293 17.4375H26.3507L24.7627 19.6875C24.6932 19.786 24.6426 19.8981 24.6139 20.0173C24.5851 20.1366 24.5787 20.2607 24.5951 20.3826C24.6115 20.5045 24.6503 20.6217 24.7094 20.7276C24.7684 20.8336 24.8465 20.9261 24.9391 21C25.0919 21.1217 25.2776 21.1875 25.4685 21.1875C25.6054 21.1875 25.7405 21.1536 25.863 21.0885C25.9855 21.0234 26.0921 20.9289 26.1742 20.8125L28.8209 17.0625C28.9339 16.9039 28.9965 16.7113 28.9996 16.5124C29.0028 16.3136 28.9464 16.1188 28.8385 15.9563Z" fill="white"/>
<defs>
<filter id="filter0_d_144_1489" x="-0.000244617" y="-2.38419e-07" width="41" height="41" filterUnits="userSpaceOnUse" color-interpolation-filters="sRGB">
<feFlood flood-opacity="0" result="BackgroundImageFix"/>
<feColorMatrix in="SourceAlpha" type="matrix" values="0 0 0 0 0 0 0 0 0 0 0 0 0 0 0 0 0 0 127 0" result="hardAlpha"/>
<feOffset dy="3.5"/>
<feGaussianBlur stdDeviation="2.75"/>
<feColorMatrix type="matrix" values="0 0 0 0 0 0 0 0 0 0 0 0 0 0 0 0 0 0 0.02 0"/>
<feBlend mode="normal" in2="BackgroundImageFix" result="effect1_dropShadow_144_1489"/>
<feBlend mode="normal" in="SourceGraphic" in2="effect1_dropShadow_144_1489" result="shape"/>
</filter>
</defs>
</svg>
