<svg width="36" height="36" viewBox="0 0 36 36" fill="none" xmlns="http://www.w3.org/2000/svg">
<rect x="0.499878" y="0.5" width="35" height="35" rx="12" fill="white"/>
<path d="M17.9999 9C13.0311 9 8.99988 13.0312 8.99988 18C8.99988 22.9687 13.0311 27 17.9999 27C22.9686 27 26.9999 22.9687 26.9999 18C26.9999 13.0312 22.9686 9 17.9999 9ZM17.7186 23.25C17.5332 23.25 17.3519 23.195 17.1978 23.092C17.0436 22.989 16.9234 22.8426 16.8525 22.6713C16.7815 22.5 16.763 22.3115 16.7991 22.1296C16.8353 21.9477 16.9246 21.7807 17.0557 21.6496C17.1868 21.5185 17.3539 21.4292 17.5357 21.393C17.7176 21.3568 17.9061 21.3754 18.0774 21.4464C18.2487 21.5173 18.3951 21.6375 18.4981 21.7916C18.6011 21.9458 18.6561 22.1271 18.6561 22.3125C18.6561 22.5611 18.5574 22.7996 18.3815 22.9754C18.2057 23.1512 17.9673 23.25 17.7186 23.25V23.25ZM19.2861 18.4687C18.5263 18.9787 18.4218 19.4461 18.4218 19.875C18.4218 20.049 18.3526 20.216 18.2295 20.339C18.1065 20.4621 17.9395 20.5312 17.7655 20.5312C17.5915 20.5312 17.4245 20.4621 17.3015 20.339C17.1784 20.216 17.1093 20.049 17.1093 19.875C17.1093 18.848 17.5818 18.0314 18.5539 17.3784C19.4577 16.7719 19.9686 16.3875 19.9686 15.5423C19.9686 14.9677 19.6405 14.5312 18.9613 14.2083C18.8014 14.1323 18.4457 14.0583 18.0078 14.0634C17.4585 14.0705 17.0319 14.2017 16.7033 14.4661C16.0836 14.9648 16.0311 15.5077 16.0311 15.5156C16.027 15.6018 16.0059 15.6863 15.9691 15.7644C15.9322 15.8424 15.8804 15.9124 15.8165 15.9704C15.7527 16.0284 15.678 16.0732 15.5968 16.1024C15.5156 16.1315 15.4294 16.1444 15.3432 16.1402C15.2571 16.1361 15.1725 16.115 15.0945 16.0782C15.0165 16.0414 14.9465 15.9895 14.8885 15.9256C14.8305 15.8618 14.7856 15.7871 14.7565 15.7059C14.7273 15.6247 14.7145 15.5385 14.7186 15.4523C14.7238 15.3384 14.803 14.3123 15.8797 13.4461C16.438 12.997 17.1482 12.7636 17.9891 12.7533C18.5844 12.7462 19.1436 12.847 19.5228 13.0261C20.6577 13.5628 21.2811 14.4577 21.2811 15.5423C21.2811 17.1281 20.2213 17.8402 19.2861 18.4687Z" fill="#4FD1C5"/>
</svg>
