<svg width="30" height="30" viewBox="0 0 30 30" fill="none" xmlns="http://www.w3.org/2000/svg">
<rect width="30" height="30" rx="12" fill="#4FD1C5"/>
<path d="M17.7453 9.39199C17.1752 8.77646 16.3789 8.4375 15.5 8.4375C14.6164 8.4375 13.8175 8.77441 13.25 9.38613C12.6764 10.0046 12.3969 10.8451 12.4625 11.7527C12.5926 13.5434 13.9552 15 15.5 15C17.0449 15 18.4051 13.5437 18.5372 11.7533C18.6037 10.8539 18.3225 10.0151 17.7453 9.39199Z" fill="white"/>
<path d="M20.6564 21.5615H10.3439C10.2089 21.5633 10.0753 21.5349 9.95262 21.4785C9.82997 21.4221 9.72145 21.3391 9.63493 21.2354C9.4445 21.0078 9.36775 20.697 9.42458 20.3826C9.67185 19.0109 10.4435 17.8587 11.6564 17.0498C12.734 16.3317 14.0989 15.9365 15.5002 15.9365C16.9014 15.9365 18.2664 16.332 19.3439 17.0498C20.5568 17.8584 21.3285 19.0106 21.5757 20.3823C21.6326 20.6967 21.5558 21.0075 21.3654 21.2352C21.2789 21.3388 21.1704 21.4219 21.0478 21.4784C20.9251 21.5348 20.7914 21.5632 20.6564 21.5615V21.5615Z" fill="white"/>
</svg>
