<svg width="30" height="30" viewBox="0 0 41 41" fill="none" xmlns="http://www.w3.org/2000/svg">
<g filter="url(#filter0_d_144_1488)">
<rect x="5.49976" y="2" width="30" height="30" rx="12" fill="#4FD1C5"/>
</g>
<g clip-path="url(#clip0_144_1488)">
<path d="M26.7563 13.0314C26.7226 12.9657 26.6738 12.909 26.6139 12.8657C26.5541 12.8225 26.4849 12.794 26.412 12.7826C26.3391 12.7712 26.2645 12.7771 26.1943 12.8C26.1241 12.8229 26.0603 12.862 26.0081 12.9142L24.2081 14.7153C24.1197 14.8024 24.0006 14.8512 23.8766 14.8512C23.7525 14.8512 23.6334 14.8024 23.5451 14.7153L22.767 13.936C22.7234 13.8925 22.6889 13.8408 22.6653 13.784C22.6418 13.7271 22.6296 13.6661 22.6296 13.6046C22.6296 13.543 22.6418 13.482 22.6653 13.4251C22.6889 13.3683 22.7234 13.3166 22.767 13.2731L24.5593 11.4804C24.6131 11.4267 24.6529 11.3607 24.6755 11.2881C24.6981 11.2156 24.7027 11.1386 24.6889 11.0639C24.6751 10.9892 24.6434 10.9189 24.5964 10.8592C24.5494 10.7995 24.4887 10.752 24.4193 10.721V10.721C23.0655 10.1157 21.3757 10.4316 20.3101 11.4892C19.4049 12.388 19.135 13.7925 19.5704 15.3426C19.5939 15.4252 19.594 15.5128 19.5708 15.5955C19.5476 15.6783 19.5019 15.753 19.4388 15.8113L14.5615 20.2659C14.3715 20.4365 14.2182 20.644 14.1111 20.8758C14.0039 21.1076 13.9451 21.3588 13.9382 21.6141C13.9313 21.8693 13.9765 22.1233 14.071 22.3605C14.1655 22.5978 14.3073 22.8132 14.4878 22.9938C14.6684 23.1745 14.8838 23.3164 15.121 23.411C15.3582 23.5056 15.6121 23.5509 15.8674 23.5441C16.1227 23.5373 16.3739 23.4786 16.6057 23.3716C16.8375 23.2645 17.0451 23.1113 17.2158 22.9214L21.7181 18.0332C21.7757 17.971 21.8491 17.9256 21.9305 17.902C22.0119 17.8784 22.0982 17.8775 22.1801 17.8993C22.6215 18.0202 23.0767 18.083 23.5342 18.0859C24.5128 18.0859 25.3715 17.7692 25.9908 17.159C27.1378 16.029 27.3127 14.1124 26.7563 13.0314ZM15.9147 22.6006C15.7218 22.6217 15.527 22.5823 15.3574 22.488C15.1878 22.3937 15.0516 22.249 14.9677 22.074C14.8837 21.899 14.8562 21.7022 14.8889 21.5109C14.9215 21.3196 15.0127 21.1431 15.15 21.0058C15.2872 20.8686 15.4636 20.7773 15.6549 20.7445C15.8463 20.7118 16.043 20.7393 16.2181 20.8232C16.3931 20.907 16.5378 21.0431 16.6322 21.2128C16.7266 21.3824 16.766 21.5771 16.745 21.77C16.7219 21.9823 16.627 22.1804 16.476 22.3314C16.325 22.4825 16.127 22.5774 15.9147 22.6006V22.6006Z" fill="white"/>
</g>
<defs>
<filter id="filter0_d_144_1488" x="-0.000244617" y="-2.38419e-07" width="41" height="41" filterUnits="userSpaceOnUse" color-interpolation-filters="sRGB">
<feFlood flood-opacity="0" result="BackgroundImageFix"/>
<feColorMatrix in="SourceAlpha" type="matrix" values="0 0 0 0 0 0 0 0 0 0 0 0 0 0 0 0 0 0 127 0" result="hardAlpha"/>
<feOffset dy="3.5"/>
<feGaussianBlur stdDeviation="2.75"/>
<feColorMatrix type="matrix" values="0 0 0 0 0 0 0 0 0 0 0 0 0 0 0 0 0 0 0.02 0"/>
<feBlend mode="normal" in2="BackgroundImageFix" result="effect1_dropShadow_144_1488"/>
<feBlend mode="normal" in="SourceGraphic" in2="effect1_dropShadow_144_1488" result="shape"/>
</filter>
<clipPath id="clip0_144_1488">
<rect width="15" height="15" fill="white" transform="translate(12.9998 9.5)"/>
</clipPath>
</defs>
</svg>
