<svg width="41" height="41" viewBox="0 0 41 41" fill="none" xmlns="http://www.w3.org/2000/svg">
<g filter="url(#filter0_d_133_1491)">
<rect x="5.5" y="2" width="30" height="30" rx="12" fill="white"/>
</g>
<path d="M26.7567 13.0314C26.7229 12.9657 26.6741 12.909 26.6143 12.8657C26.5545 12.8225 26.4853 12.794 26.4123 12.7826C26.3394 12.7712 26.2648 12.7771 26.1946 12.8C26.1244 12.8229 26.0607 12.862 26.0084 12.9142L24.2084 14.7153C24.1201 14.8024 24.001 14.8512 23.8769 14.8512C23.7529 14.8512 23.6338 14.8024 23.5455 14.7153L22.7673 13.936C22.7238 13.8925 22.6893 13.8408 22.6657 13.784C22.6421 13.7271 22.63 13.6661 22.63 13.6046C22.63 13.543 22.6421 13.482 22.6657 13.4251C22.6893 13.3683 22.7238 13.3166 22.7673 13.2731L24.5597 11.4804C24.6134 11.4267 24.6533 11.3607 24.6759 11.2881C24.6984 11.2156 24.703 11.1386 24.6893 11.0639C24.6755 10.9892 24.6437 10.9189 24.5968 10.8592C24.5498 10.7995 24.489 10.752 24.4197 10.721V10.721C23.0659 10.1157 21.376 10.4316 20.3105 11.4892C19.4052 12.388 19.1354 13.7925 19.5707 15.3426C19.5942 15.4252 19.5944 15.5128 19.5711 15.5955C19.5479 15.6783 19.5023 15.753 19.4392 15.8113L14.5619 20.2659C14.3719 20.4365 14.2186 20.644 14.1114 20.8758C14.0043 21.1076 13.9454 21.3588 13.9386 21.6141C13.9317 21.8693 13.9768 22.1233 14.0713 22.3605C14.1658 22.5978 14.3077 22.8132 14.4882 22.9938C14.6687 23.1745 14.8842 23.3164 15.1213 23.411C15.3585 23.5056 15.6125 23.5509 15.8678 23.5441C16.123 23.5373 16.3742 23.4786 16.6061 23.3716C16.8379 23.2645 17.0455 23.1113 17.2162 22.9214L21.7185 18.0332C21.776 17.971 21.8495 17.9256 21.9309 17.902C22.0123 17.8784 22.0986 17.8775 22.1805 17.8993C22.6218 18.0202 23.077 18.083 23.5346 18.0859C24.5131 18.0859 25.3718 17.7692 25.9912 17.159C27.1381 16.029 27.313 14.1124 26.7567 13.0314ZM15.9151 22.6006C15.7221 22.6217 15.5274 22.5823 15.3578 22.488C15.1881 22.3937 15.052 22.249 14.968 22.074C14.8841 21.899 14.8566 21.7022 14.8892 21.5109C14.9219 21.3196 15.0131 21.1431 15.1503 21.0058C15.2876 20.8686 15.464 20.7773 15.6553 20.7445C15.8466 20.7118 16.0434 20.7393 16.2184 20.8232C16.3935 20.907 16.5382 21.0431 16.6326 21.2128C16.7269 21.3824 16.7664 21.5771 16.7454 21.77C16.7223 21.9823 16.6274 22.1804 16.4764 22.3314C16.3254 22.4825 16.1274 22.5774 15.9151 22.6006V22.6006Z" fill="#4FD1C5"/>
<defs>
<filter id="filter0_d_133_1491" x="-4.76837e-07" y="-2.38419e-07" width="41" height="41" filterUnits="userSpaceOnUse" color-interpolation-filters="sRGB">
<feFlood flood-opacity="0" result="BackgroundImageFix"/>
<feColorMatrix in="SourceAlpha" type="matrix" values="0 0 0 0 0 0 0 0 0 0 0 0 0 0 0 0 0 0 127 0" result="hardAlpha"/>
<feOffset dy="3.5"/>
<feGaussianBlur stdDeviation="2.75"/>
<feColorMatrix type="matrix" values="0 0 0 0 0 0 0 0 0 0 0 0 0 0 0 0 0 0 0.02 0"/>
<feBlend mode="normal" in2="BackgroundImageFix" result="effect1_dropShadow_133_1491"/>
<feBlend mode="normal" in="SourceGraphic" in2="effect1_dropShadow_133_1491" result="shape"/>
</filter>
</defs>
</svg>
