<svg id="32:11145" layer-name="Logo" width="125" height="24" viewBox="0 0 125 24" fill="none" xmlns="http://www.w3.org/2000/svg" class="w-[125px] h-[23px]">
  <text fill="#2D3748" xml:space="preserve" style="white-space: pre" font-family="Arial" font-size="14" font-weight="bold" letter-spacing="0em"><tspan x="34" y="16.9345">SMARTGEAR</tspan></text>
  <path fill-rule="evenodd" clip-rule="evenodd" d="M10.9895 15.738C9.08955 15.738 7.54879 14.1162 7.54879 12.1163C7.54879 10.1163 9.08955 8.49453 10.9895 8.49453C12.8895 8.49453 14.4302 10.1163 14.4302 12.1163C14.4302 14.1162 12.8895 15.738 10.9895 15.738ZM18.1868 11.1174L16.7665 10.5854C16.5883 10.5187 16.3918 10.3101 16.3295 10.1218L16.1052 9.54954C16.0233 9.3699 16.0226 9.07582 16.1038 8.89582L16.7489 7.4674C16.8301 7.2874 16.7933 7.01903 16.6671 6.87054L15.9731 6.14003C15.832 6.00712 15.577 5.96836 15.406 6.05384L14.049 6.73291C13.878 6.81839 13.5986 6.81766 13.428 6.73146L12.8843 6.49533C12.7054 6.43013 12.5072 6.22297 12.4439 6.03537L11.9385 4.54031C11.8752 4.3527 11.6687 4.18502 11.4805 4.16763C11.4805 4.16763 11.2713 4.14844 10.9895 4.14844C10.7077 4.14844 10.4985 4.16763 10.4985 4.16763C10.31 4.18502 10.1039 4.3527 10.0406 4.54031L9.53512 6.03537C9.47181 6.22297 9.27363 6.43014 9.09471 6.49569L8.55211 6.73146C8.38145 6.81766 8.10206 6.81839 7.93106 6.73291L6.573 6.05384C6.402 5.96836 6.14704 6.00712 6.00597 6.14003L5.31198 6.87054C5.1857 7.01903 5.14889 7.2874 5.23009 7.4674L5.87522 8.89582C5.95642 9.07582 5.95608 9.3699 5.87385 9.54954L5.64951 10.1218C5.58758 10.3101 5.39077 10.5187 5.21254 10.5854L3.79221 11.1174C3.61398 11.184 3.45467 11.401 3.43816 11.5994C3.43816 11.5994 3.41992 11.8196 3.41992 12.1163C3.41992 12.4129 3.43816 12.6327 3.43816 12.6327C3.45467 12.8312 3.61398 13.0481 3.79221 13.1151L5.21323 13.6472C5.39146 13.7138 5.58827 13.9224 5.65054 14.1108L5.87488 14.683C5.95677 14.8626 5.95746 15.1567 5.87626 15.3367L5.23112 16.7651C5.14992 16.9451 5.18673 17.2135 5.31301 17.362L6.007 18.0925C6.14807 18.2254 6.40303 18.2642 6.57403 18.1787L7.93106 17.4996C8.10206 17.4142 8.38145 17.4149 8.55211 17.5011L9.09574 17.7372C9.27432 17.8024 9.4725 18.0096 9.53616 18.1972L10.0416 19.693C10.1049 19.8806 10.311 20.0482 10.4996 20.0653C10.4996 20.0653 10.7077 20.0841 10.9895 20.0841C11.2713 20.0841 11.4805 20.0649 11.4805 20.0649C11.6687 20.0475 11.8752 19.8798 11.9385 19.6922L12.4439 18.1965C12.5072 18.0088 12.7054 17.8017 12.8843 17.7361L13.428 17.5C13.5986 17.4138 13.878 17.4131 14.049 17.4985L15.406 18.1776C15.577 18.2631 15.832 18.2243 15.9731 18.0914L16.6671 17.3609C16.7933 17.2124 16.8301 16.9441 16.7489 16.7641L16.1038 15.3356C16.0226 15.1556 16.0233 14.8616 16.1052 14.6823L16.3295 14.1097C16.3915 13.9217 16.5883 13.7131 16.7665 13.6461L18.1875 13.1141C18.3657 13.0474 18.5251 12.8305 18.5412 12.632C18.5412 12.632 18.5591 12.4129 18.5591 12.1163C18.5591 11.8196 18.5409 11.5994 18.5409 11.5994C18.5244 11.401 18.3651 11.184 18.1868 11.1174Z" fill="white"></path>
  <path fill-rule="evenodd" clip-rule="evenodd" d="M10.9897 10.4863C10.5791 10.4863 10.1853 10.658 9.8949 10.9637C9.60453 11.2693 9.44141 11.6839 9.44141 12.1161C9.44141 12.5484 9.60453 12.9629 9.8949 13.2685C10.1853 13.5742 10.5791 13.7459 10.9897 13.7459C11.4004 13.7459 11.7942 13.5742 12.0846 13.2685C12.3749 12.9629 12.5381 12.5484 12.5381 12.1161C12.5381 11.6839 12.3749 11.2693 12.0846 10.9637C11.7942 10.658 11.4004 10.4863 10.9897 10.4863Z" fill="white"></path>
  <mask id="mask0_32_11145" style="mask-type:luminance" maskUnits="userSpaceOnUse" x="0" y="0" width="22" height="24">
    <path d="M0 23.7057H22V0.541016H0V23.7057Z" fill="white"></path>
  </mask>
  <g mask="url(#mask0_32_11145)">
    <path fill-rule="evenodd" clip-rule="evenodd" d="M10.9896 13.7457C10.5789 13.7457 10.1851 13.574 9.89472 13.2683C9.60435 12.9627 9.44123 12.5481 9.44123 12.1159C9.44123 11.6836 9.60435 11.2691 9.89472 10.9635C10.1851 10.6578 10.5789 10.4861 10.9896 10.4861C11.4002 10.4861 11.794 10.6578 12.0844 10.9635C12.3748 11.2691 12.5379 11.6836 12.5379 12.1159C12.5379 12.5481 12.3748 12.9627 12.0844 13.2683C11.794 13.574 11.4002 13.7457 10.9896 13.7457ZM10.9896 8.49414C9.08959 8.49414 7.54883 10.116 7.54883 12.1159C7.54883 14.1158 9.08959 15.7376 10.9896 15.7376C12.8895 15.7376 14.4303 14.1158 14.4303 12.1159C14.4303 10.116 12.8895 8.49414 10.9896 8.49414Z" fill="black"></path>
  </g>
  <mask id="mask1_32_11145" style="mask-type:luminance" maskUnits="userSpaceOnUse" x="0" y="0" width="22" height="24">
    <path d="M0 23.7057H22V0.541016H0V23.7057Z" fill="white"></path>
  </mask>
  <g mask="url(#mask1_32_11145)">
    <path fill-rule="evenodd" clip-rule="evenodd" d="M18.5415 12.6327C18.5253 12.8311 18.366 13.0481 18.1878 13.1147L16.7668 13.6467C16.5886 13.7137 16.3918 13.9224 16.3298 14.1103L16.1055 14.6829C16.0236 14.8622 16.0229 15.1563 16.1041 15.3363L16.7492 16.7647C16.8304 16.9447 16.7936 17.2131 16.6674 17.3616L15.9734 18.0921C15.8323 18.225 15.5773 18.2637 15.4063 18.1783L14.0493 17.4992C13.8783 17.4137 13.5989 17.4144 13.4283 17.5006L12.8846 17.7368C12.7057 17.8023 12.5075 18.0095 12.4442 18.1971L11.9388 19.6929C11.8755 19.8805 11.669 20.0482 11.4808 20.0656C11.4808 20.0656 11.2716 20.0848 10.9898 20.0848C10.708 20.0848 10.4999 20.0659 10.4999 20.0659C10.3113 20.0489 10.1052 19.8812 10.0419 19.6936L9.53645 18.1978C9.4728 18.0102 9.27461 17.8031 9.09604 17.7379L8.5524 17.5017C8.38174 17.4155 8.10236 17.4148 7.93135 17.5003L6.57433 18.1794C6.40333 18.2648 6.14837 18.2261 6.0073 18.0932L5.3133 17.3627C5.18703 17.2142 5.15021 16.9458 5.23142 16.7658L5.87655 15.3374C5.95775 15.1574 5.95706 14.8633 5.87518 14.6836L5.65084 14.1114C5.58856 13.9231 5.39175 13.7145 5.21352 13.6478L3.7925 13.1158C3.61427 13.0488 3.45497 12.8319 3.43845 12.6334C3.43845 12.6334 3.42022 12.4135 3.42022 12.1169C3.42022 11.8203 3.43845 11.6001 3.43845 11.6001C3.45497 11.4016 3.61427 11.1847 3.7925 11.118L5.21284 10.586C5.39107 10.5194 5.58787 10.3108 5.64981 10.1224L5.87414 9.55019C5.95638 9.37055 5.95672 9.07647 5.87552 8.89647L5.23038 7.46805C5.14918 7.28805 5.186 7.01968 5.31227 6.87119L6.00627 6.14068C6.14734 6.00776 6.40229 5.96901 6.5733 6.05448L7.93135 6.73356C8.10236 6.81903 8.38174 6.81831 8.5524 6.73211L9.09501 6.49634C9.27392 6.43078 9.47211 6.22362 9.53542 6.03601L10.0409 4.54096C10.1042 4.35335 10.3103 4.18567 10.4988 4.16828C10.4988 4.16828 10.708 4.14909 10.9898 4.14909C11.2716 4.14909 11.4808 4.16828 11.4808 4.16828C11.669 4.18567 11.8755 4.35335 11.9388 4.54096L12.4442 6.03601C12.5075 6.22362 12.7057 6.43078 12.8846 6.49598L13.4283 6.73211C13.5989 6.81831 13.8783 6.81903 14.0493 6.73356L15.4063 6.05448C15.5773 5.96901 15.8323 6.00776 15.9734 6.14068L16.6674 6.87119C16.7936 7.01968 16.8304 7.28805 16.7492 7.46805L16.1041 8.89647C16.0229 9.07647 16.0236 9.37055 16.1055 9.55019L16.3298 10.1224C16.3921 10.3108 16.5886 10.5194 16.7668 10.586L18.1871 11.118C18.3654 11.1847 18.5247 11.4016 18.5412 11.6001C18.5412 11.6001 18.5594 11.8203 18.5594 12.1169C18.5594 12.4135 18.5415 12.6327 18.5415 12.6327ZM10.9898 0.527344C4.90902 0.527344 -0.0205078 5.71621 -0.0205078 12.1169C-0.0205078 18.5176 4.90902 23.7065 10.9898 23.7065C17.0706 23.7065 22.0001 18.5176 22.0001 12.1169C22.0001 5.71621 17.0706 0.527344 10.9898 0.527344Z" fill="black"></path>
  </g>
</svg>
