<svg id="32:11044" layer-name="Image" width="862" height="895" viewBox="0 0 862 895" fill="none" xmlns="http://www.w3.org/2000/svg" xmlns:xlink="http://www.w3.org/1999/xlink" class="w-full h-full">
  <path d="M0 0H862V894.784H25C11.1929 894.784 0 883.591 0 869.784V0Z" fill="#4FD1C5"></path>
  <mask id="mask0_32_11044" style="mask-type:alpha" maskUnits="userSpaceOnUse" x="0" y="0" width="862" height="895">
    <path d="M0 0H862V894.784H25C11.1929 894.784 0 883.591 0 869.784V0Z" fill="#5CE1CA"></path>
  </mask>
  <g mask="url(#mask0_32_11044)">
    <rect width="1619.01" height="809.506" transform="matrix(0.69793 -0.716166 0.69793 0.716166 -620 744.412)" fill="none"></rect>
    <rect width="1619.01" height="809.506" transform="matrix(-0.69793 0.716166 -0.69793 -0.716166 1557.93 196.994)" fill="none"></rect>
    <path fill-rule="evenodd" clip-rule="evenodd" d="M430.765 525.017C387.584 525.017 352.566 490.01 352.566 446.843C352.566 403.675 387.584 368.669 430.765 368.669C473.946 368.669 508.963 403.675 508.963 446.843C508.963 490.01 473.946 525.017 430.765 525.017ZM594.34 425.283L562.06 413.799C558.009 412.36 553.544 407.858 552.129 403.792L547.03 391.441C545.169 387.564 545.153 381.216 546.999 377.331L561.661 346.499C563.506 342.614 562.67 336.821 559.8 333.616L544.027 317.848C540.821 314.979 535.027 314.143 531.14 315.988L500.299 330.645C496.412 332.49 490.063 332.474 486.184 330.614L473.829 325.517C469.762 324.11 465.258 319.638 463.819 315.589L452.332 283.319C450.893 279.269 446.201 275.65 441.924 275.275C441.924 275.275 437.169 274.86 430.765 274.86C424.36 274.86 419.606 275.275 419.606 275.275C415.321 275.65 410.637 279.269 409.198 283.319L397.71 315.589C396.272 319.638 391.767 324.11 387.701 325.525L375.369 330.614C371.49 332.474 365.141 332.49 361.254 330.645L330.389 315.988C326.503 314.143 320.709 314.979 317.502 317.848L301.73 333.616C298.86 336.821 298.023 342.614 299.869 346.499L314.531 377.331C316.376 381.216 316.368 387.564 314.5 391.441L309.401 403.792C307.993 407.858 303.521 412.36 299.47 413.799L267.19 425.283C263.139 426.721 259.518 431.404 259.143 435.687C259.143 435.687 258.729 440.44 258.729 446.843C258.729 453.245 259.143 457.99 259.143 457.99C259.518 462.274 263.139 466.957 267.19 468.403L299.485 479.887C303.536 481.325 308.009 485.828 309.424 489.893L314.523 502.245C316.384 506.122 316.4 512.47 314.554 516.355L299.892 547.187C298.047 551.072 298.883 556.865 301.753 560.07L317.526 575.838C320.732 578.707 326.526 579.543 330.413 577.698L361.254 563.04C365.141 561.196 371.49 561.211 375.369 563.072L387.724 568.169C391.783 569.576 396.287 574.047 397.734 578.097L409.221 610.383C410.66 614.432 415.344 618.051 419.629 618.419C419.629 618.419 424.36 618.825 430.765 618.825C437.169 618.825 441.924 618.411 441.924 618.411C446.201 618.036 450.893 614.416 452.332 610.367L463.819 578.081C465.258 574.032 469.762 569.56 473.829 568.145L486.184 563.048C490.063 561.188 496.412 561.172 500.299 563.017L531.14 577.675C535.027 579.52 540.821 578.683 544.027 575.814L559.8 560.046C562.67 556.841 563.506 551.049 561.661 547.163L546.999 516.332C545.153 512.446 545.169 506.099 547.03 502.229L552.129 489.87C553.536 485.813 558.009 481.31 562.06 479.863L594.356 468.38C598.406 466.941 602.027 462.259 602.394 457.975C602.394 457.975 602.801 453.245 602.801 446.843C602.801 440.44 602.387 435.687 602.387 435.687C602.011 431.404 598.391 426.721 594.34 425.283Z" fill="#4FD1C5"></path>
    <path fill-rule="evenodd" clip-rule="evenodd" d="M430.765 411.665C421.433 411.665 412.482 415.371 405.883 421.969C399.284 428.566 395.576 437.513 395.576 446.843C395.576 456.173 399.284 465.121 405.883 471.718C412.482 478.315 421.433 482.022 430.765 482.022C440.098 482.022 449.049 478.315 455.648 471.718C462.247 465.121 465.955 456.173 465.955 446.843C465.955 437.513 462.247 428.566 455.648 421.969C449.049 415.371 440.098 411.665 430.765 411.665Z" fill="#4FD1C5"></path>
    <mask id="mask1_32_11044" style="mask-type:luminance" maskUnits="userSpaceOnUse" x="181" y="197" width="500" height="500">
      <path d="M181 697H681V197H181V697Z" fill="white"></path>
    </mask>
    <g mask="url(#mask1_32_11044)">
      <path fill-rule="evenodd" clip-rule="evenodd" d="M430.765 482.022C421.432 482.022 412.481 478.316 405.882 471.719C399.283 465.121 395.575 456.174 395.575 446.844C395.575 437.514 399.283 428.566 405.882 421.969C412.481 415.372 421.432 411.666 430.765 411.666C440.097 411.666 449.048 415.372 455.647 421.969C462.247 428.566 465.954 437.514 465.954 446.844C465.954 456.174 462.247 465.121 455.647 471.719C449.048 478.316 440.097 482.022 430.765 482.022ZM430.765 368.67C387.584 368.67 352.566 403.676 352.566 446.844C352.566 490.011 387.584 525.018 430.765 525.018C473.946 525.018 508.963 490.011 508.963 446.844C508.963 403.676 473.946 368.67 430.765 368.67Z" fill="white"></path>
    </g>
    <mask id="mask2_32_11044" style="mask-type:luminance" maskUnits="userSpaceOnUse" x="181" y="197" width="500" height="500">
      <path d="M181 697H681V197H181V697Z" fill="white"></path>
    </mask>
    <g mask="url(#mask2_32_11044)">
      <path fill-rule="evenodd" clip-rule="evenodd" d="M602.395 457.976C602.027 462.26 598.406 466.942 594.356 468.381L562.06 479.865C558.009 481.311 553.536 485.814 552.129 489.871L547.03 502.23C545.169 506.1 545.153 512.447 546.999 516.333L561.661 547.164C563.507 551.05 562.67 556.842 559.8 560.047L544.027 575.815C540.821 578.684 535.027 579.521 531.14 577.676L500.299 563.018C496.412 561.173 490.063 561.189 486.184 563.049L473.829 568.146C469.762 569.561 465.258 574.033 463.819 578.082L452.332 610.368C450.893 614.417 446.201 618.037 441.924 618.412C441.924 618.412 437.169 618.826 430.765 618.826C424.36 618.826 419.629 618.42 419.629 618.42C415.344 618.052 410.66 614.433 409.221 610.384L397.734 578.098C396.287 574.048 391.783 569.577 387.725 568.17L375.369 563.073C371.491 561.212 365.141 561.197 361.254 563.041L330.413 577.699C326.527 579.544 320.732 578.708 317.526 575.839L301.753 560.071C298.883 556.866 298.047 551.073 299.892 547.188L314.554 516.356C316.4 512.471 316.384 506.123 314.523 502.246L309.425 489.894C308.009 485.829 303.536 481.326 299.486 479.888L267.19 468.404C263.139 466.958 259.518 462.275 259.143 457.991C259.143 457.991 258.729 453.246 258.729 446.844C258.729 440.441 259.143 435.688 259.143 435.688C259.518 431.405 263.139 426.722 267.19 425.284L299.47 413.8C303.521 412.361 307.994 407.859 309.401 403.794L314.5 391.442C316.369 387.565 316.376 381.217 314.531 377.332L299.869 346.5C298.023 342.615 298.86 336.822 301.73 333.617L317.502 317.849C320.709 314.98 326.503 314.144 330.39 315.989L361.254 330.646C365.141 332.491 371.491 332.475 375.369 330.615L387.701 325.526C391.767 324.111 396.272 319.639 397.71 315.59L409.198 283.32C410.637 279.27 415.321 275.651 419.606 275.276C419.606 275.276 424.36 274.861 430.765 274.861C437.169 274.861 441.924 275.276 441.924 275.276C446.201 275.651 450.893 279.27 452.332 283.32L463.819 315.59C465.258 319.639 469.762 324.111 473.829 325.518L486.184 330.615C490.063 332.475 496.412 332.491 500.299 330.646L531.14 315.989C535.027 314.144 540.821 314.98 544.027 317.849L559.8 333.617C562.67 336.822 563.507 342.615 561.661 346.5L546.999 377.332C545.153 381.217 545.169 387.565 547.03 391.442L552.129 403.794C553.544 407.859 558.009 412.361 562.06 413.8L594.34 425.284C598.391 426.722 602.011 431.405 602.387 435.688C602.387 435.688 602.801 440.441 602.801 446.844C602.801 453.246 602.395 457.976 602.395 457.976ZM430.765 196.688C292.565 196.688 180.53 308.687 180.53 446.844C180.53 585.001 292.565 697 430.765 697C568.965 697 680.999 585.001 680.999 446.844C680.999 308.687 568.965 196.688 430.765 196.688Z" fill="white"></path>
    </g>
  </g>
  <defs>
    <pattern id="pattern0_32_11044" patternContentUnits="objectBoundingBox" width="1" height="1">
      <use xlink:href="#image0_32_11044" transform="scale(0.00078125 0.0015625)"></use>
    </pattern>
    <pattern id="pattern1_32_11044" patternContentUnits="objectBoundingBox" width="1" height="1">
      <use xlink:href="#image0_32_11044" transform="scale(0.00078125 0.0015625)"></use>
    </pattern>
  </defs>
</svg>
