<svg width="28" height="21" viewBox="0 0 28 21" fill="none" xmlns="http://www.w3.org/2000/svg">
<path d="M20.1291 15.0954L17.3726 12.3389C18.0362 11.4554 18.3945 10.38 18.3933 9.275C18.3933 6.45254 16.097 4.15625 13.2745 4.15625C10.452 4.15625 8.15576 6.45254 8.15576 9.275C8.15576 12.0975 10.452 14.3937 13.2745 14.3937C14.3795 14.395 15.4549 14.0367 16.3384 13.373L19.0949 16.1296C19.2345 16.2543 19.4164 16.3209 19.6035 16.3157C19.7906 16.3104 19.9686 16.2338 20.1009 16.1014C20.2333 15.9691 20.3099 15.7911 20.3152 15.604C20.3204 15.4169 20.2538 15.2349 20.1291 15.0954ZM9.61826 9.275C9.61826 8.55186 9.8327 7.84496 10.2344 7.2437C10.6362 6.64243 11.2072 6.1738 11.8753 5.89706C12.5434 5.62033 13.2786 5.54793 13.9878 5.689C14.6971 5.83008 15.3485 6.1783 15.8599 6.68964C16.3712 7.20098 16.7194 7.85246 16.8605 8.5617C17.0016 9.27094 16.9292 10.0061 16.6524 10.6742C16.3757 11.3423 15.9071 11.9133 15.3058 12.3151C14.7045 12.7168 13.9976 12.9312 13.2745 12.9312C12.3052 12.9301 11.3759 12.5445 10.6904 11.8591C10.005 11.1736 9.61942 10.2443 9.61826 9.275Z" fill="#2D3748"/>
</svg>
